<?xml version="1.0" encoding="UTF-8"?><svg id="Layer_1" xmlns="http://www.w3.org/2000/svg" viewBox="0 0 222.84 50.28"><defs><style>.cls-1{fill:#fff;}.cls-2{stroke:#dd6966;}.cls-2,.cls-3,.cls-4,.cls-5,.cls-6,.cls-7,.cls-8,.cls-9,.cls-10,.cls-11,.cls-12,.cls-13,.cls-14,.cls-15,.cls-16,.cls-17,.cls-18,.cls-19,.cls-20,.cls-21,.cls-22{fill:none;stroke-miterlimit:10;stroke-width:2.38px;}.cls-3{stroke:#85688e;}.cls-23{isolation:isolate;}.cls-4{stroke:#a3d780;}.cls-5{stroke:#87dbec;}.cls-6{stroke:#add65c;}.cls-7{stroke:#c2d457;}.cls-8{stroke:#87bed4;}.cls-9{stroke:#9ad9a4;}.cls-10{stroke:#d6d252;}.cls-11{stroke:#ebd04c;}.cls-24{fill:#ff931e;}.cls-12{stroke:#ea805c;}.cls-13{stroke:#fbb24d;}.cls-14{stroke:#86a2bd;}.cls-15{stroke:#f69652;}.cls-16{stroke:#91dac8;}.cls-17{stroke:#f8a44f;}.cls-18{stroke:#f08b57;}.cls-19{stroke:#8685a6;}.cls-20{stroke:#e37461;}.cls-21{stroke:#ffce47;}.cls-22{stroke:#fdc04a;}</style></defs><g><path class="cls-2" d="M50.26,37.7c-.21-.41,1.24-1.24,3.52-2.48,2.17-1.24,5.27-2.79,8.79-4.24,3.52-1.34,6.93-2.07,9.72-1.86,2.69,.21,4.65,1.45,5.07,3.21,.31,1.76-.93,3.62-3.41,4.86-2.38,1.24-5.9,1.86-9.62,1.97-3.83,.1-7.24-.21-9.83-.52-2.59-.21-4.24-.41-4.24-.93h0Z"/><path class="cls-20" d="M49.85,36.25c-.1-.21,.21-.62,.72-1.14s1.34-1.14,2.38-1.86c2.07-1.55,4.86-3.52,8.17-5.38,3.31-1.86,6.62-3.1,9.31-3.21,1.34-.1,2.59,.1,3.52,.52s1.55,1.14,1.86,1.97c.21,.41,.21,.83,.21,1.34-.1,.52-.21,.93-.41,1.45-.52,.93-1.24,1.86-2.38,2.59-2.17,1.55-5.59,2.69-9.31,3.31-3.83,.62-7.24,.83-9.72,.83h-3.1c-.31,0-.62-.1-.83-.1-.21-.1-.41-.21-.41-.31h0Z"/><path class="cls-12" d="M49.23,34.91c-.21-.52,.83-1.55,2.69-3.41,1.76-1.76,4.34-4.14,7.34-6.41,3-2.28,6.1-3.93,8.79-4.45,2.59-.52,4.86,.1,5.69,1.76,.41,.83,.41,1.76,.1,2.69s-1.03,1.97-2.07,2.9c-1.97,1.86-5.07,3.41-8.69,4.55s-7.03,1.76-9.52,2.28c-1.24,.21-2.28,.31-3,.41-.72-.1-1.24-.1-1.34-.31h0Z"/><path class="cls-18" d="M48.4,33.56c-.31-.41,.62-1.76,2.17-3.72s3.72-4.76,6.41-7.45c2.69-2.69,5.48-4.76,8.07-5.59,2.59-.93,4.86-.52,5.9,.93s.52,3.72-1.14,5.79c-1.76,2.17-4.65,4.14-8.07,5.69s-6.72,2.69-9.1,3.52-3.93,1.24-4.24,.83Z"/><path class="cls-15" d="M47.47,32.32c-.31-.41,.31-1.76,1.65-4.03,1.24-2.17,3-5.17,5.38-8.17,2.28-3,4.86-5.48,7.24-6.62s4.76-1.24,5.9,.1c.62,.62,.93,1.55,.83,2.59s-.52,2.17-1.14,3.31c-1.34,2.28-3.93,4.65-7.14,6.72-3.21,2.07-6.31,3.62-8.58,4.76-1.14,.52-2.07,.93-2.79,1.24s-1.14,.41-1.34,.1h0Z"/><path class="cls-17" d="M46.33,31.29c-.41-.21,.21-1.86,1.03-4.14,.93-2.38,2.28-5.59,4.14-8.89s4.03-6,6.31-7.55c2.28-1.55,4.45-1.86,5.9-.72,1.34,1.14,1.55,3.41,.52,5.9-1.03,2.48-3.31,5.17-6.21,7.65s-5.79,4.45-7.86,5.79c-1.97,1.45-3.41,2.38-3.83,1.97h0Z"/><path class="cls-13" d="M45.09,30.46c-.41-.31-.1-1.86,.52-4.34s1.55-5.79,2.9-9.31,3.21-6.62,5.17-8.38c1.97-1.86,4.24-2.48,5.79-1.45,1.55,.93,1.97,3.21,1.24,5.79s-2.59,5.59-5.07,8.48-5.07,5.17-7.03,6.83c-1.86,1.65-3.1,2.59-3.52,2.38h0Z"/><path class="cls-22" d="M43.75,29.74c-.52-.21-.31-1.76-.1-4.34,.31-2.48,.72-6,1.65-9.62,.93-3.72,2.28-6.93,4.03-9s3.83-3,5.48-2.28c1.65,.83,2.48,2.9,2.07,5.59-.31,2.69-1.76,5.9-3.93,9s-4.34,5.79-6,7.76c-1.65,1.86-2.79,3.1-3.21,2.9h0Z"/><path class="cls-21" d="M42.3,29.22c-.21-.1-.41-.52-.52-1.24s-.21-1.76-.21-3c-.1-2.59-.1-6,.31-9.83s1.24-7.14,2.69-9.41c.72-1.14,1.55-2.07,2.48-2.59,.83-.52,1.86-.72,2.69-.41,.83,.21,1.55,.83,2.07,1.76s.72,2.07,.72,3.41c0,2.69-1.03,6.1-2.59,9.52-1.65,3.41-3.52,6.31-4.86,8.48-.72,1.03-1.24,1.97-1.76,2.48-.41,.62-.72,.83-1.03,.83h0Z"/><path class="cls-11" d="M40.85,28.91c-.1,0-.21-.1-.31-.31-.1-.21-.21-.41-.31-.83-.21-.72-.41-1.76-.62-3-.41-2.59-.93-5.9-1.03-9.72-.1-3.83,.31-7.34,1.45-9.72,.52-1.24,1.24-2.17,2.07-2.9,.31-.31,.72-.62,1.14-.72,.41-.1,.93-.21,1.34-.1,.93,.1,1.65,.62,2.28,1.45,.62,.83,1.03,1.97,1.24,3.31,.41,2.69-.1,6.1-1.24,9.72-1.14,3.62-2.59,6.83-3.62,9.1-.52,1.14-1.03,2.07-1.34,2.69-.52,.72-.83,1.03-1.03,1.03h0Z"/><path class="cls-10" d="M39.3,28.81c-.52,.1-1.03-1.55-1.86-3.93-.72-2.38-1.76-5.69-2.38-9.52s-.72-7.24,.1-9.83c.72-2.69,2.28-4.24,4.14-4.34,1.86,.1,3.41,1.65,4.14,4.34,.72,2.59,.72,6.1,.1,9.83s-1.65,7.14-2.38,9.52c-.83,2.38-1.34,3.93-1.86,3.93Z"/><path class="cls-7" d="M37.75,28.91c-.21,0-.52-.31-.93-.93s-.83-1.55-1.34-2.69c-1.03-2.28-2.48-5.48-3.62-9.1-1.14-3.62-1.65-7.03-1.24-9.72,.21-1.34,.62-2.48,1.24-3.31,.62-.83,1.45-1.34,2.28-1.45,.41-.1,.93,0,1.34,.1,.41,.1,.83,.41,1.24,.72,.83,.62,1.55,1.65,2.07,2.9,1.14,2.48,1.55,6,1.45,9.72-.1,3.83-.62,7.14-1.03,9.72-.21,1.24-.41,2.28-.62,3-.1,.31-.21,.62-.31,.83-.31,.1-.41,.21-.52,.21h0Z"/><path class="cls-6" d="M36.2,29.22c-.21,0-.62-.21-1.03-.83-.52-.52-1.03-1.45-1.76-2.48-1.34-2.07-3.21-5.07-4.86-8.48-1.65-3.41-2.69-6.83-2.59-9.52,0-1.34,.31-2.48,.72-3.41s1.14-1.55,2.07-1.76,1.86-.1,2.69,.41c.93,.52,1.76,1.45,2.48,2.59,1.45,2.28,2.28,5.69,2.69,9.41,.41,3.83,.31,7.24,.31,9.83,0,1.24-.1,2.28-.21,3-.1,.72-.21,1.14-.52,1.24h0Z"/><path class="cls-4" d="M34.75,29.74c-.41,.21-1.55-1.03-3.21-2.9-1.65-1.97-3.93-4.55-6-7.76s-3.52-6.31-3.93-9,.41-4.86,2.07-5.59c1.65-.72,3.83,.21,5.48,2.28,1.76,2.07,3.1,5.27,4.03,9,.93,3.72,1.34,7.14,1.65,9.62,.31,2.48,.41,4.14-.1,4.34h0Z"/><path class="cls-9" d="M33.4,30.46c-.41,.21-1.65-.72-3.62-2.38-1.97-1.76-4.45-4.03-7.03-6.83-2.48-2.9-4.45-5.9-5.07-8.48-.72-2.59-.31-4.86,1.24-5.79,1.55-.93,3.72-.31,5.79,1.45,1.97,1.76,3.83,4.86,5.17,8.38,1.45,3.52,2.28,6.83,2.9,9.31,.72,2.48,1.14,4.03,.62,4.34h0Z"/><path class="cls-16" d="M32.16,31.29c-.31,.41-1.76-.52-3.93-1.86-2.07-1.34-4.96-3.31-7.86-5.79s-5.07-5.17-6.21-7.65-.93-4.76,.41-5.9c1.45-1.14,3.62-.93,5.9,.72,2.28,1.55,4.45,4.24,6.31,7.55,1.86,3.31,3.21,6.52,4.14,8.89,1.03,2.17,1.65,3.72,1.24,4.03h0Z"/><path class="cls-5" d="M31.02,32.32c-.21,.21-.62,.1-1.34-.1-.72-.21-1.65-.62-2.79-1.24-2.28-1.03-5.38-2.59-8.48-4.65-3.21-2.07-5.79-4.45-7.14-6.72-.72-1.14-1.14-2.28-1.14-3.31-.1-1.03,.21-1.97,.83-2.59,1.14-1.34,3.52-1.34,5.9-.1,2.38,1.24,4.96,3.62,7.24,6.62s4.03,6,5.38,8.17c1.24,2.17,1.86,3.52,1.55,3.93h0Z"/><path class="cls-8" d="M30.09,33.56c-.31,.41-1.86,0-4.24-.83-2.38-.72-5.69-1.86-9.1-3.52s-6.31-3.62-8.07-5.69c-1.65-2.07-2.17-4.34-1.14-5.79,1.03-1.45,3.31-1.86,5.9-.93,2.59,.83,5.38,2.9,8.07,5.59,2.69,2.69,4.86,5.38,6.41,7.45,1.45,1.97,2.48,3.31,2.17,3.72Z"/><path class="cls-14" d="M29.27,34.91c-.1,.21-.52,.31-1.34,.21-.72,0-1.76-.21-3-.41-2.48-.41-5.9-1.14-9.52-2.28-3.62-1.14-6.72-2.69-8.69-4.55-.93-.93-1.76-1.97-2.07-2.9s-.31-1.97,.1-2.69c.83-1.65,3.1-2.17,5.69-1.76,2.69,.52,5.79,2.17,8.79,4.45s5.59,4.65,7.34,6.41c1.86,1.86,2.9,3,2.69,3.52h0Z"/><path class="cls-19" d="M28.75,36.25c0,.1-.21,.21-.41,.31-.21,.1-.52,.1-.83,.1h-3.1c-2.59-.1-6-.21-9.72-.83-3.72-.62-7.14-1.76-9.31-3.31-1.14-.83-1.86-1.65-2.38-2.59-.21-.52-.41-.93-.41-1.45,0-.41,0-.93,.21-1.34,.31-.83,.93-1.55,1.86-1.97s2.17-.62,3.52-.52c2.69,.1,6,1.34,9.31,3.21,3.31,1.86,6.1,3.93,8.17,5.38,1.03,.72,1.86,1.34,2.38,1.86,.52,.62,.83,.93,.72,1.14h0Z"/><path class="cls-3" d="M28.23,37.7c0,.52-1.76,.72-4.14,1.03-2.48,.21-6,.52-9.83,.52-3.83-.1-7.24-.72-9.62-1.97-2.48-1.24-3.72-3.1-3.41-4.86,.41-1.76,2.28-3,5.07-3.21,2.69-.21,6.1,.52,9.72,1.86,3.52,1.34,6.62,3,8.79,4.24,2.17,1.14,3.62,1.97,3.41,2.38h0Z"/></g><g class="cls-23"><path class="cls-1" d="M86.78,31.05h6.28v3.03h-10.11V15.02h3.82V31.05Z"/><path class="cls-1" d="M98.28,33.36c-1.17-.65-2.08-1.56-2.75-2.75-.67-1.18-1-2.55-1-4.1s.34-2.91,1.02-4.1c.68-1.18,1.62-2.1,2.8-2.74,1.18-.65,2.5-.97,3.96-.97s2.78,.32,3.96,.97c1.18,.65,2.12,1.56,2.8,2.74,.68,1.18,1.02,2.55,1.02,4.1s-.35,2.91-1.05,4.1c-.7,1.18-1.65,2.1-2.84,2.75-1.19,.65-2.53,.97-4,.97s-2.77-.32-3.93-.97Zm5.89-2.87c.61-.34,1.1-.84,1.46-1.52,.36-.67,.55-1.49,.55-2.46,0-1.44-.38-2.54-1.13-3.32-.76-.77-1.68-1.16-2.77-1.16s-2.01,.39-2.75,1.16c-.74,.77-1.11,1.88-1.11,3.32s.36,2.54,1.08,3.32c.72,.77,1.63,1.16,2.72,1.16,.69,0,1.34-.17,1.95-.5Z"/><path class="cls-1" d="M117.37,22.09v7.32c0,.51,.12,.88,.37,1.11s.66,.34,1.24,.34h1.78v3.22h-2.4c-3.22,0-4.84-1.57-4.84-4.7v-7.29h-1.8v-3.14h1.8v-3.74h3.85v3.74h3.39v3.14h-3.39Z"/><path class="cls-1" d="M127.97,22.09v7.32c0,.51,.12,.88,.37,1.11s.66,.34,1.24,.34h1.78v3.22h-2.4c-3.22,0-4.83-1.57-4.83-4.7v-7.29h-1.8v-3.14h1.8v-3.74h3.85v3.74h3.39v3.14h-3.39Z"/><path class="cls-1" d="M148.08,27.66h-11.06c.09,1.09,.47,1.95,1.15,2.57,.67,.62,1.5,.93,2.49,.93,1.42,0,2.43-.61,3.03-1.83h4.12c-.44,1.46-1.27,2.65-2.51,3.59-1.24,.94-2.76,1.41-4.56,1.41-1.46,0-2.76-.32-3.92-.97s-2.06-1.56-2.7-2.75-.97-2.55-.97-4.1,.32-2.94,.96-4.12c.64-1.18,1.53-2.09,2.68-2.73,1.15-.64,2.47-.96,3.96-.96s2.73,.31,3.87,.93c1.14,.62,2.02,1.5,2.65,2.64,.63,1.14,.94,2.44,.94,3.92,0,.55-.04,1.04-.11,1.48Zm-3.85-2.57c-.02-.98-.37-1.77-1.07-2.36s-1.54-.89-2.54-.89c-.95,0-1.74,.29-2.39,.86-.65,.57-1.04,1.37-1.19,2.39h7.18Z"/><path class="cls-1" d="M156.72,19.41c.79-.46,1.7-.68,2.72-.68v4.02h-1.01c-1.2,0-2.11,.28-2.72,.85-.61,.56-.92,1.55-.92,2.95v7.54h-3.82v-15.13h3.82v2.35c.49-.8,1.13-1.43,1.93-1.88Z"/><path class="cls-1" d="M176.48,18.95l-9.37,22.29h-4.07l3.28-7.54-6.06-14.75h4.29l3.91,10.57,3.96-10.57h4.07Z"/><path class="cls-1" d="M178.52,33.63c-.45-.43-.67-.96-.67-1.6s.22-1.17,.67-1.6,1.01-.64,1.71-.64,1.23,.21,1.67,.64c.44,.43,.66,.96,.66,1.6s-.22,1.17-.66,1.6c-.44,.43-.99,.64-1.67,.64s-1.26-.21-1.71-.64Z"/></g><g class="cls-23"><path class="cls-24" d="M192.64,20.25c.4,.51,.6,1.09,.6,1.74,0,.59-.15,1.11-.44,1.56-.29,.45-.71,.8-1.26,1.05-.55,.25-1.2,.38-1.95,.38h-4.77V13.93h4.56c.75,0,1.4,.12,1.94,.36s.96,.58,1.24,1.01c.28,.43,.42,.92,.42,1.47,0,.64-.17,1.18-.51,1.62-.34,.43-.8,.74-1.37,.92,.62,.12,1.13,.43,1.54,.94Zm-5.59-1.76h2.03c.53,0,.93-.12,1.22-.36s.43-.58,.43-1.02-.14-.79-.43-1.03c-.29-.24-.69-.36-1.22-.36h-2.03v2.77Zm3.49,4.31c.3-.25,.45-.61,.45-1.08s-.16-.85-.47-1.12c-.32-.27-.75-.4-1.28-.4h-2.19v2.98h2.23c.54,0,.96-.13,1.26-.38Z"/><path class="cls-24" d="M197.23,15.72v2.77h3.72v1.76h-3.72v2.93h4.2v1.81h-6.42V13.92h6.42v1.81h-4.2Z"/><path class="cls-24" d="M210.97,13.93v1.79h-2.95v9.27h-2.22V15.72h-2.95v-1.79h8.11Z"/><path class="cls-24" d="M219.37,22.88h-4.4l-.73,2.11h-2.33l3.98-11.07h2.58l3.98,11.07h-2.34l-.73-2.11Zm-.6-1.77l-1.6-4.63-1.6,4.63h3.2Z"/></g></svg>